<svg width="31" height="30" viewBox="0 0 31 30" fill="none" xmlns="http://www.w3.org/2000/svg">
<path d="M23.2476 30.0002C17.0844 29.9922 11.1759 27.5559 6.81789 23.2256C2.45985 18.8952 0.0079886 13.0242 0 6.90017C0 5.07018 0.731608 3.31514 2.03388 2.02113C3.33615 0.727134 5.10241 0.000171442 6.94409 0.000171442C7.33408 -0.00278026 7.72342 0.0323889 8.10647 0.105171C8.47679 0.159622 8.84084 0.250056 9.19338 0.375171C9.44132 0.461616 9.66227 0.610871 9.83436 0.80818C10.0065 1.00549 10.1237 1.24401 10.1746 1.50017L12.2427 10.5002C12.2985 10.7445 12.2918 10.9987 12.2232 11.2398C12.1547 11.4809 12.0264 11.701 11.8502 11.8802C11.654 12.0902 11.6389 12.1052 9.78211 13.0652C11.269 16.3065 13.8779 18.9094 17.1338 20.4002C18.115 18.5402 18.1301 18.5252 18.3415 18.3302C18.5218 18.1551 18.7433 18.0277 18.9859 17.9596C19.2285 17.8915 19.4844 17.8848 19.7303 17.9402L28.7878 19.9952C29.0373 20.0527 29.268 20.1724 29.4582 20.343C29.6483 20.5135 29.7917 20.7294 29.8747 20.9702C30.0021 21.3262 30.0981 21.6926 30.1615 22.0652C30.2223 22.4422 30.2526 22.8234 30.2521 23.2052C30.2243 25.0273 29.4721 26.7646 28.1598 28.0376C26.8475 29.3107 25.0816 30.0162 23.2476 30.0002Z" fill="white"/>
</svg>
