<svg width="31" height="24" viewBox="0 0 31 24" fill="none" xmlns="http://www.w3.org/2000/svg">
<path d="M3.02506 0H27.2267C28.8906 0 30.2368 1.35 30.2368 3L30.252 21C30.252 22.65 28.8906 24 27.2267 24H3.02506C1.3612 24 -0.000144958 22.65 -0.000144958 21V3C-0.000144958 1.35 1.3612 0 3.02506 0ZM3.63011 6.375L14.3242 13.005C14.8083 13.305 15.4436 13.305 15.9276 13.005L26.6217 6.375C26.7734 6.29057 26.9062 6.17649 27.0121 6.03968C27.1181 5.90287 27.1949 5.74617 27.238 5.57906C27.2811 5.41195 27.2895 5.2379 27.2628 5.06746C27.2361 4.89702 27.1748 4.73372 27.0826 4.58745C26.9904 4.44118 26.8693 4.31498 26.7265 4.21649C26.5837 4.118 26.4222 4.04927 26.2519 4.01445C26.0815 3.97963 25.9058 3.97945 25.7354 4.01392C25.565 4.04839 25.4034 4.1168 25.2604 4.215L15.1259 10.5L4.99145 4.215C4.84845 4.1168 4.68685 4.04839 4.51642 4.01392C4.34599 3.97945 4.17029 3.97963 3.99993 4.01445C3.82957 4.04927 3.66812 4.118 3.52532 4.21649C3.38253 4.31498 3.26137 4.44118 3.16919 4.58745C3.077 4.73372 3.0157 4.89702 2.989 5.06746C2.9623 5.2379 2.97074 5.41195 3.01383 5.57906C3.05692 5.74617 3.13376 5.90287 3.23968 6.03968C3.34561 6.17649 3.47843 6.29057 3.63011 6.375Z" fill="white"/>
</svg>
