<svg width="42" height="42" viewBox="0 0 42 42" fill="none" xmlns="http://www.w3.org/2000/svg">
<path d="M1 21C1 32.046 9.85484 41 20.7785 41C31.7022 41 40.557 32.046 40.557 21C40.557 9.954 31.7022 1 20.7785 1C9.85484 1 1 9.954 1 21Z" stroke="#3A3A3A" stroke-width="2" stroke-linecap="round" stroke-linejoin="round"/>
<path d="M22.7564 1.09998C22.7564 1.09998 28.69 8.99998 28.69 21C28.69 33 22.7564 40.9 22.7564 40.9M18.8007 40.9C18.8007 40.9 12.8672 33 12.8672 21C12.8672 8.99998 18.8007 1.09998 18.8007 1.09998M2.24609 28H39.311M2.24609 14H39.311" stroke="#3A3A3A" stroke-width="2" stroke-linecap="round" stroke-linejoin="round"/>
</svg>
