<svg width="24" height="30" viewBox="0 0 24 30" fill="none" xmlns="http://www.w3.org/2000/svg">
<path d="M11.9748 0C8.80003 0.00368622 5.75638 1.24658 3.51148 3.45603C1.26659 5.66548 0.00375809 8.66108 1.27399e-05 11.7857C-0.00378968 14.3392 0.843669 16.8233 2.41239 18.8571C2.41239 18.8571 2.73897 19.2804 2.79231 19.3414L11.9748 30L21.1616 19.3361C21.2095 19.2793 21.5372 18.8571 21.5372 18.8571L21.5383 18.8539C23.1062 16.821 23.9533 14.338 23.9496 11.7857C23.9458 8.66108 22.683 5.66548 20.4381 3.45603C18.1932 1.24658 15.1495 0.00368622 11.9748 0ZM11.9748 16.0714C11.1136 16.0714 10.2717 15.8201 9.55558 15.3492C8.83949 14.8782 8.28137 14.2089 7.95179 13.4258C7.62221 12.6427 7.53598 11.781 7.704 10.9496C7.87201 10.1183 8.28674 9.35462 8.89572 8.75526C9.5047 8.15589 10.2806 7.74771 11.1253 7.58235C11.97 7.41698 12.8455 7.50185 13.6412 7.82623C14.4368 8.15061 15.1169 8.69992 15.5954 9.4047C16.0739 10.1095 16.3293 10.9381 16.3293 11.7857C16.3278 12.9219 15.8686 14.0112 15.0523 14.8146C14.236 15.618 13.1292 16.07 11.9748 16.0714Z" fill="white"/>
</svg>
