<svg width="41" height="40" viewBox="0 0 41 40" fill="none" xmlns="http://www.w3.org/2000/svg">
<path d="M20.5778 5.44444e-05C15.2453 0.0247327 10.1396 2.14276 6.37767 5.89081C2.61576 9.63886 0.503848 14.7118 0.503906 20C0.503906 25.3043 2.62875 30.3914 6.41099 34.1421C10.1932 37.8929 15.3231 40 20.6719 40C26.0208 40 31.1507 37.8929 34.9329 34.1421C38.7151 30.3914 40.84 25.3043 40.84 20C40.84 14.6957 38.7151 9.60863 34.9329 5.85791C31.1507 2.10719 26.0208 5.44444e-05 20.6719 5.44444e-05C20.6406 -1.81481e-05 20.6092 -1.81481e-05 20.5778 5.44444e-05ZM28.9173 12.04C29.0854 12.0367 29.4568 12.0784 29.6988 12.2734C29.8596 12.4119 29.9622 12.6052 29.9862 12.815C30.0131 12.97 30.0467 13.325 30.0198 13.6017C29.7173 16.765 28.403 24.4384 27.7341 27.98C27.4518 29.48 26.8955 29.9817 26.356 30.03C25.1862 30.1383 24.2972 29.2633 23.1627 28.5267C21.3879 27.3717 20.3846 26.6534 18.6619 25.5267C16.6703 24.2267 17.961 23.51 19.0955 22.3434C19.393 22.0367 24.5526 17.3817 24.6535 16.96C24.6652 16.9067 24.677 16.71 24.5593 16.6067C24.4417 16.5034 24.2669 16.5384 24.1409 16.5667C23.9627 16.6067 21.1274 18.4667 15.635 22.1417C14.8283 22.6917 14.1005 22.9584 13.4467 22.9417C12.7274 22.9284 11.3425 22.54 10.3123 22.2084C9.04843 21.8 8.04507 21.585 8.13247 20.8934C8.17785 20.5334 8.67869 20.165 9.63331 19.7884C15.5123 17.2484 19.4316 15.5734 21.3946 14.765C26.9946 12.455 28.1593 12.0534 28.9173 12.04Z" fill="white"/>
</svg>
